<?xml version="1.0" encoding="UTF-8" standalone="no"?>
<!-- Created with Inkscape (http://www.inkscape.org/) -->

<svg
   version="1.1"
   id="svg1"
   width="2100"
   height="500"
   viewBox="0 0 2100 500"
   sodipodi:docname="piano_5_oitavas.svg"
   inkscape:version="1.4.2 (f4327f4, 2025-05-13)"
   xmlns:inkscape="http://www.inkscape.org/namespaces/inkscape"
   xmlns:sodipodi="http://sodipodi.sourceforge.net/DTD/sodipodi-0.dtd"
   xmlns:xlink="http://www.w3.org/1999/xlink"
   xmlns="http://www.w3.org/2000/svg"
   xmlns:svg="http://www.w3.org/2000/svg">
  <sodipodi:namedview
     id="namedview1"
     pagecolor="#ffffff"
     bordercolor="#000000"
     borderopacity="0.25"
     inkscape:showpageshadow="2"
     inkscape:pageopacity="0.0"
     inkscape:pagecheckerboard="0"
     inkscape:deskcolor="#d1d1d1"
     showgrid="false"
     inkscape:zoom="0.40271415"
     inkscape:cx="1504.7894"
     inkscape:cy="329.01749"
     inkscape:window-width="1366"
     inkscape:window-height="705"
     inkscape:window-x="-8"
     inkscape:window-y="-8"
     inkscape:window-maximized="1"
     inkscape:current-layer="g1" />
  <defs
     id="defs1">
    <linearGradient
       id="swatch15"
       inkscape:swatch="solid">
      <stop
         style="stop-color:#000000;stop-opacity:1;"
         offset="0"
         id="stop15" />
    </linearGradient>
    <inkscape:path-effect
       effect="fill_between_many"
       method="originald"
       linkedpaths="#path336,0,1|"
       id="path-effect1" />
    <inkscape:path-effect
       effect="fill_between_many"
       method="originald"
       linkedpaths="#path338,0,1|"
       id="path-effect2" />
    <inkscape:path-effect
       effect="fill_between_many"
       method="originald"
       linkedpaths="#path333,0,1|"
       id="path-effect3" />
    <inkscape:path-effect
       effect="fill_between_many"
       method="originald"
       linkedpaths="#path329,0,1|"
       id="path-effect8" />
    <inkscape:path-effect
       effect="fill_between_many"
       method="originald"
       linkedpaths="#path334,0,1|"
       id="path-effect9" />
    <inkscape:path-effect
       effect="fill_between_many"
       method="originald"
       linkedpaths="#path327,0,1|"
       id="path-effect10" />
    <inkscape:path-effect
       effect="fill_between_many"
       method="originald"
       linkedpaths="#path330,0,1|"
       id="path-effect11" />
    <filter
       inkscape:collect="always"
       style="color-interpolation-filters:sRGB"
       id="filter15"
       x="-0.011568433"
       y="-0.0013707228"
       width="1.0231571"
       height="1.002742">
      <feGaussianBlur
         inkscape:collect="always"
         stdDeviation="0.052022307"
         id="feGaussianBlur15" />
    </filter>
    <linearGradient
       inkscape:collect="always"
       xlink:href="#swatch15"
       id="linearGradient15"
       x1="878.70132"
       y1="243.17262"
       x2="932.96469"
       y2="243.17262"
       gradientUnits="userSpaceOnUse"
       gradientTransform="translate(0,3.0234114)" />
    <inkscape:path-effect
       effect="fill_between_many"
       method="originald"
       linkedpaths="#path343,0,1|"
       id="path-effect15" />
    <inkscape:path-effect
       effect="fill_between_many"
       method="originald"
       linkedpaths="#path346,0,1|"
       id="path-effect16" />
    <inkscape:path-effect
       effect="fill_between_many"
       method="originald"
       linkedpaths="#path340,0,1|"
       id="path-effect17" />
    <inkscape:path-effect
       effect="fill_between_many"
       method="originald"
       linkedpaths="#path337,0,1|"
       id="path-effect18" />
    <inkscape:path-effect
       effect="fill_between_many"
       method="originald"
       linkedpaths="#path340,0,1|"
       id="path-effect19" />
    <inkscape:path-effect
       effect="fill_between_many"
       method="originald"
       linkedpaths="#path344,0,1|"
       id="path-effect20" />
    <inkscape:path-effect
       effect="fill_between_many"
       method="originald"
       linkedpaths="#path341,0,1|"
       id="path-effect21" />
    <inkscape:path-effect
       effect="fill_between_many"
       method="originald"
       linkedpaths="#path345,0,1|"
       id="path-effect22" />
    <inkscape:path-effect
       effect="fill_between_many"
       method="originald"
       linkedpaths="#path339,0,1|"
       id="path-effect23" />
    <inkscape:path-effect
       effect="fill_between_many"
       method="originald"
       linkedpaths="#path342,0,1|"
       id="path-effect24" />
    <inkscape:path-effect
       effect="fill_between_many"
       method="originald"
       linkedpaths="#path331,0,1|"
       id="path-effect27" />
    <inkscape:path-effect
       effect="fill_between_many"
       method="originald"
       linkedpaths="#path342,0,1|"
       id="path-effect28" />
    <inkscape:path-effect
       effect="fill_between_many"
       method="originald"
       linkedpaths="#path335,0,1|"
       id="path-effect29" />
    <inkscape:path-effect
       effect="fill_between_many"
       method="originald"
       linkedpaths="#path328,0,1|"
       id="path-effect30" />
    <inkscape:path-effect
       effect="fill_between_many"
       method="originald"
       linkedpaths="#path332,0,1|"
       id="path-effect31" />
  </defs>
  <g
     id="g1">
    <path
       inkscape:original-d="M 0,0"
       inkscape:path-effect="#path-effect16"
       d="m 1001.3261,319.31406 c -2.74998,-0.33305 -5.56248,-0.96158 -6.24998,-1.39674 -0.9912,-0.62738 -1.25,-32.75624 -1.25,-155.17317 0,-122.407431 0.2589,-154.5495311 1.25,-155.1909811 1.8102,-1.17164 24.01908,-1.21337 25.49998,-0.0479 0.9903,0.77939 1.25,32.8590101 1.25,154.4031611 0,174.96109 1.1019,156.68877 -9.5,157.53326 -3.3,0.26286 -8.25,0.20543 -11,-0.12761 z"
       id="path16" />
    <path
       style="fill:#000000"
       d="m 1001.3261,319.31406 c -2.74998,-0.33305 -5.56248,-0.96158 -6.24998,-1.39674 -0.9912,-0.62738 -1.25,-32.75624 -1.25,-155.17317 0,-122.407431 0.2589,-154.5495311 1.25,-155.1909811 1.8102,-1.17164 24.01908,-1.21337 25.49998,-0.0479 0.9903,0.77939 1.25,32.8590101 1.25,154.4031611 0,174.96109 1.1019,156.68877 -9.5,157.53326 -3.3,0.26286 -8.25,0.20543 -11,-0.12761 z m 14.6395,-3.06991 c 1.8058,0 1.8605,-4.46773 1.8605,-152 V 12.244149 h -10 -9.99998 V 164.18378 316.12342 l 3.74998,0.44114 c 2.0625,0.24263 5.7253,0.26979 8.1395,0.0604 2.4143,-0.20943 5.2268,-0.38078 6.25,-0.38078 z"
       id="path346" />
    <path
       inkscape:original-d="M 0,0"
       inkscape:path-effect="#path-effect22"
       d="m 1401.3261,320.31406 c -2.75,-0.33305 -5.5625,-0.96158 -6.25,-1.39674 -0.9912,-0.62738 -1.25,-32.75624 -1.25,-155.17317 0,-122.407431 0.2589,-154.5495311 1.25,-155.1909811 1.8103,-1.17164 24.0192,-1.21337 25.5,-0.0479 0.9903,0.77939 1.25,32.8590101 1.25,154.4031511 0,174.96109 1.1019,156.68877 -9.5,157.53326 -3.3,0.26286 -8.25,0.20543 -11,-0.12761 z"
       id="path22" />
    <path
       style="fill:#000000"
       d="m 1401.3261,320.31406 c -2.75,-0.33305 -5.5625,-0.96158 -6.25,-1.39674 -0.9912,-0.62738 -1.25,-32.75624 -1.25,-155.17317 0,-122.407431 0.2589,-154.5495311 1.25,-155.1909811 1.8103,-1.17164 24.0192,-1.21337 25.5,-0.0479 0.9903,0.77939 1.25,32.8590101 1.25,154.4031511 0,174.96109 1.1019,156.68877 -9.5,157.53326 -3.3,0.26286 -8.25,0.20543 -11,-0.12761 z m 14.6396,-3.06991 c 1.8057,0 1.8604,-4.46773 1.8604,-152 V 13.244149 h -10 -10 V 165.18378 317.12342 l 3.75,0.44114 c 2.0625,0.24263 5.7253,0.26979 8.1396,0.0604 2.4142,-0.20943 5.2267,-0.38078 6.25,-0.38078 z"
       id="path345" />
    <path
       inkscape:original-d="M 0,0"
       inkscape:path-effect="#path-effect20"
       d="m 1206.3261,320.29496 c -1.1,-0.50063 -3.4144,-0.94187 -5.143,-0.98052 -1.8942,-0.0424 -3.3842,-0.69878 -3.75,-1.65208 -0.3339,-0.86998 -0.607,-70.78988 -0.607,-155.37755 0,-121.848631 0.2597,-153.9988211 1.25,-154.7732611 1.6521,-1.29193 23.8944,-1.31441 25.5,-0.0258 1.834,1.47199 1.834,307.6355011 0,309.9612911 -1.8191,2.30692 -14.0147,4.32035 -17.25,2.84789 z"
       id="path20" />
    <path
       style="fill:#000000"
       d="m 1206.3261,320.29496 c -1.1,-0.50063 -3.4144,-0.94187 -5.143,-0.98052 -1.8942,-0.0424 -3.3842,-0.69878 -3.75,-1.65208 -0.3339,-0.86998 -0.607,-70.78988 -0.607,-155.37755 0,-121.848631 0.2597,-153.9988211 1.25,-154.7732611 1.6521,-1.29193 23.8944,-1.31441 25.5,-0.0258 1.834,1.47199 1.834,307.6355011 0,309.9612911 -1.8191,2.30692 -14.0147,4.32035 -17.25,2.84789 z m 11.25,-4.0398 2.25,-0.011 V 164.20522 12.166279 l -8.75,0.28894 -8.75,0.28893 -0.2738,149.500001 c -0.1506,82.225 -0.037,150.48272 0.2524,151.68381 0.5843,2.42445 3.8036,3.34417 9.5214,2.72017 1.925,-0.21008 4.5125,-0.38692 5.75,-0.39297 z"
       id="path344"
       sodipodi:nodetypes="sssssssssscccccssss" />
    <path
       inkscape:original-d="M 0,0"
       inkscape:path-effect="#path-effect15"
       d="m 935.32609,320.29496 c -1.1,-0.50063 -3.22167,-0.94187 -4.71482,-0.98052 -1.60851,-0.0417 -3.13666,-0.85851 -3.75,-2.00455 -1.63809,-3.0608 -1.42613,-308.6946811 0.21482,-309.7567211 1.81028,-1.17164 24.01917,-1.21337 25.5,-0.0479 0.99031,0.7794 1.25,32.9124301 1.25,154.6702211 0,121.43704 -0.2623,154.01905 -1.25,155.2716 -1.81914,2.30692 -14.01469,4.32035 -17.25,2.84789 z"
       id="path15" />
    <path
       style="fill:#000000"
       d="m 935.32609,320.29496 c -1.1,-0.50063 -3.22167,-0.94187 -4.71482,-0.98052 -1.60851,-0.0417 -3.13666,-0.85851 -3.75,-2.00455 -1.63809,-3.0608 -1.42613,-308.6946811 0.21482,-309.7567211 1.81028,-1.17164 24.01917,-1.21337 25.5,-0.0479 0.99031,0.7794 1.25,32.9124301 1.25,154.6702211 0,121.43704 -0.2623,154.01905 -1.25,155.2716 -1.81914,2.30692 -14.01469,4.32035 -17.25,2.84789 z m 11.125,-4.05081 h 2.375 V 164.20522 12.166279 l -8.75,0.28894 -8.75,0.28893 -0.27383,149.500001 c -0.1506,82.225 -0.0367,150.4841 0.25321,151.68688 0.56493,2.34409 4.4392,3.39602 9.89562,2.6868 1.58125,-0.20552 3.94375,-0.37368 5.25,-0.37368 z"
       id="path343" />
    <path
       inkscape:original-d="M 0,0"
       inkscape:path-effect="#path-effect28"
       d="m 1606.3261,321.29496 c -1.1,-0.50063 -3.4144,-0.94187 -5.143,-0.98052 -1.8942,-0.0424 -3.3842,-0.69878 -3.75,-1.65208 -0.3339,-0.86998 -0.607,-70.78988 -0.607,-155.37755 0,-121.848631 0.2597,-153.9988211 1.25,-154.7732611 1.6521,-1.29193 23.8944,-1.31441 25.5,-0.0258 1.834,1.47199 1.834,307.6355011 0,309.9612911 -1.8191,2.30692 -14.0147,4.32035 -17.25,2.84789 z"
       id="path28" />
    <path
       style="fill:#000000"
       d="m 1606.3261,321.29496 c -1.1,-0.50063 -3.4144,-0.94187 -5.143,-0.98052 -1.8942,-0.0424 -3.3842,-0.69878 -3.75,-1.65208 -0.3339,-0.86998 -0.607,-70.78988 -0.607,-155.37755 0,-121.848631 0.2597,-153.9988211 1.25,-154.7732611 1.6521,-1.29193 23.8944,-1.31441 25.5,-0.0258 1.834,1.47199 1.834,307.6355011 0,309.9612911 -1.8191,2.30692 -14.0147,4.32035 -17.25,2.84789 z m 11.25,-4.0398 2.25,-0.011 V 165.20522 13.166279 l -8.75,0.28894 -8.75,0.28893 -0.2738,149.500001 c -0.1506,82.225 -0.037,150.48272 0.2524,151.68381 0.5843,2.42445 3.8036,3.34417 9.5214,2.72017 1.925,-0.21008 4.5125,-0.38692 5.75,-0.39297 z"
       id="path342" />
    <path
       inkscape:original-d="M 0,0"
       inkscape:path-effect="#path-effect21"
       d="m 1335.3261,321.29496 c -1.1,-0.50063 -3.2217,-0.94187 -4.7148,-0.98052 -1.6085,-0.0417 -3.1367,-0.85851 -3.75,-2.00455 -1.6381,-3.0608 -1.4261,-308.6946811 0.2148,-309.7567211 1.8103,-1.17164 24.0192,-1.21337 25.5,-0.0479 1.834,1.44344 1.834,307.6159811 0,309.9418111 -1.8191,2.30692 -14.0147,4.32035 -17.25,2.84789 z"
       id="path21" />
    <path
       style="fill:#000000"
       d="m 1335.3261,321.29496 c -1.1,-0.50063 -3.2217,-0.94187 -4.7148,-0.98052 -1.6085,-0.0417 -3.1367,-0.85851 -3.75,-2.00455 -1.6381,-3.0608 -1.4261,-308.6946811 0.2148,-309.7567211 1.8103,-1.17164 24.0192,-1.21337 25.5,-0.0479 1.834,1.44344 1.834,307.6159811 0,309.9418111 -1.8191,2.30692 -14.0147,4.32035 -17.25,2.84789 z m 11.125,-4.05081 h 2.375 V 165.20522 13.166279 l -8.75,0.28894 -8.75,0.28893 -0.2738,149.500001 c -0.1506,82.225 -0.037,150.4841 0.2532,151.68688 0.5649,2.34409 4.4392,3.39602 9.8956,2.6868 1.5813,-0.20552 3.9438,-0.37368 5.25,-0.37368 z"
       id="path341" />
    <path
       inkscape:original-d="M 0,0"
       inkscape:path-effect="#path-effect19"
       d="m 1140.3261,321.00928 c -1.1,-0.64574 -3.8,-1.41955 -6,-1.7196 l -4,-0.54553 -0.2531,-155.75 c -0.202,-124.252551 3e-4,-155.7610811 1,-155.8048011 8.5005,-0.37168 23.7195,-0.084 24.608,0.46514 1.6958,1.04803 1.6413,308.6934311 -0.055,310.3896611 -0.66,0.66 -2.3475,1.21595 -3.75,1.23544 -1.4025,0.0195 -3.675,0.67854 -5.05,1.46456 -3.0413,1.73855 -3.9284,1.77473 -6.5,0.26513 z"
       id="path19" />
    <path
       style="fill:#000000"
       d="m 1140.3261,321.00928 c -1.1,-0.64574 -3.8,-1.41955 -6,-1.7196 l -4,-0.54553 -0.2531,-155.75 c -0.202,-124.252551 3e-4,-155.7610811 1,-155.8048011 8.5005,-0.37168 23.7195,-0.084 24.608,0.46514 1.6958,1.04803 1.6413,308.6934311 -0.055,310.3896611 -0.66,0.66 -2.3475,1.21595 -3.75,1.23544 -1.4025,0.0195 -3.675,0.67854 -5.05,1.46456 -3.0413,1.73855 -3.9284,1.77473 -6.5,0.26513 z m 10.6396,-4.76513 c 1.8057,0 1.8604,-4.46773 1.8604,-152 V 12.244149 h -9.5 -9.5 V 164.18079 316.11743 l 3.25,0.45233 c 1.7875,0.24878 5.2253,0.27729 7.6396,0.0634 2.4142,-0.21394 5.2267,-0.38897 6.25,-0.38897 z"
       id="path340" />
    <path
       inkscape:original-d="M 0,0"
       inkscape:path-effect="#path-effect23"
       d="m 1540.3261,322.00928 c -1.1,-0.64574 -3.8,-1.41955 -6,-1.7196 l -4,-0.54553 -0.2531,-155.75 c -0.202,-124.252551 3e-4,-155.7610811 1,-155.8048011 8.5005,-0.37168 23.7195,-0.084 24.608,0.46514 1.6958,1.04803 1.6413,308.6934311 -0.055,310.3896611 -0.66,0.66 -2.3475,1.21595 -3.75,1.23544 -1.4025,0.0195 -3.675,0.67854 -5.05,1.46456 -3.0413,1.73855 -3.9284,1.77473 -6.5,0.26513 z"
       id="path23" />
    <path
       style="fill:#000000"
       d="m 1540.3261,322.00928 c -1.1,-0.64574 -3.8,-1.41955 -6,-1.7196 l -4,-0.54553 -0.2531,-155.75 c -0.202,-124.252551 3e-4,-155.7610811 1,-155.8048011 8.5005,-0.37168 23.7195,-0.084 24.608,0.46514 1.6958,1.04803 1.6413,308.6934311 -0.055,310.3896611 -0.66,0.66 -2.3475,1.21595 -3.75,1.23544 -1.4025,0.0195 -3.675,0.67854 -5.05,1.46456 -3.0413,1.73855 -3.9284,1.77473 -6.5,0.26513 z m 10.6396,-4.76513 c 1.8057,0 1.8604,-4.46773 1.8604,-152 V 13.244149 h -9.5 -9.5 V 165.18079 317.11743 l 3.25,0.45233 c 1.7875,0.24878 5.2253,0.27729 7.6396,0.0634 2.4142,-0.21394 5.2267,-0.38897 6.25,-0.38897 z"
       id="path339" />
    <path
       inkscape:original-d="M 0,0"
       inkscape:path-effect="#path-effect2"
       d="m 192.32609,323.31406 c -2.75,-0.33305 -5.5625,-0.96158 -6.25,-1.39674 -0.99119,-0.62738 -1.25,-32.75624 -1.25,-155.17317 0,-122.407431 0.25889,-154.549531 1.25,-155.190981 1.81028,-1.17164 24.01917,-1.21337 25.5,-0.0479 0.99029,0.77939 1.25,32.85901 1.25,154.403151 0,174.96109 1.10191,156.68877 -9.5,157.53326 -3.3,0.26286 -8.25,0.20543 -11,-0.12761 z"
       id="path2" />
    <path
       style="fill:#000000"
       d="m 192.32609,323.31406 c -2.75,-0.33305 -5.5625,-0.96158 -6.25,-1.39674 -0.99119,-0.62738 -1.25,-32.75624 -1.25,-155.17317 0,-122.407431 0.25889,-154.549531 1.25,-155.190981 1.81028,-1.17164 24.01917,-1.21337 25.5,-0.0479 0.99029,0.77939 1.25,32.85901 1.25,154.403151 0,174.96109 1.10191,156.68877 -9.5,157.53326 -3.3,0.26286 -8.25,0.20543 -11,-0.12761 z m 14.63957,-3.06991 c 1.80575,0 1.86043,-4.46773 1.86043,-152 V 16.244149 h -10 -10 V 168.18378 320.12342 l 3.75,0.44114 c 2.0625,0.24263 5.72531,0.26979 8.13957,0.0604 2.41427,-0.20943 5.22677,-0.38078 6.25,-0.38078 z"
       id="path338" />
    <path
       inkscape:original-d="M 0,0"
       inkscape:path-effect="#path-effect18"
       d="m 397.32609,324.29496 c -1.1,-0.50063 -3.41436,-0.94187 -5.14301,-0.98052 -1.8942,-0.0424 -3.38419,-0.69878 -3.75,-1.65208 -0.33385,-0.86998 -0.60699,-70.78988 -0.60699,-155.37755 0,-121.848631 0.25966,-153.998821 1.25,-154.773261 1.65211,-1.29193 23.89442,-1.31441 25.5,-0.0258 0.99023,0.79476 1.25,32.94228 1.25,154.689691 0,121.43704 -0.2623,154.01905 -1.25,155.2716 -1.81914,2.30692 -14.01469,4.32035 -17.25,2.84789 z"
       id="path18" />
    <path
       style="fill:#000000"
       d="m 397.32609,324.29496 c -1.1,-0.50063 -3.41436,-0.94187 -5.14301,-0.98052 -1.8942,-0.0424 -3.38419,-0.69878 -3.75,-1.65208 -0.33385,-0.86998 -0.60699,-70.78988 -0.60699,-155.37755 0,-121.848631 0.25966,-153.998821 1.25,-154.773261 1.65211,-1.29193 23.89442,-1.31441 25.5,-0.0258 0.99023,0.79476 1.25,32.94228 1.25,154.689691 0,121.43704 -0.2623,154.01905 -1.25,155.2716 -1.81914,2.30692 -14.01469,4.32035 -17.25,2.84789 z m 11.25,-4.0398 2.25,-0.011 V 168.20522 16.166279 l -8.75,0.28894 -8.75,0.28893 -0.27383,149.500001 c -0.1506,82.225 -0.037,150.48272 0.25244,151.68381 0.58426,2.42445 3.80355,3.34417 9.52139,2.72017 1.925,-0.21008 4.5125,-0.38692 5.75,-0.39297 z"
       id="path337" />
    <path
       inkscape:original-d="M 0,0"
       inkscape:path-effect="#path-effect1"
       d="m 126.32609,324.29496 c -1.1,-0.50063 -3.22167,-0.94187 -4.71482,-0.98052 -1.60851,-0.0417 -3.13666,-0.85851 -3.75,-2.00455 -1.63809,-3.0608 -1.42613,-308.694681 0.21482,-309.756721 1.81028,-1.17164 24.01917,-1.21337 25.5,-0.0479 1.83405,1.44344 1.83405,307.615981 0,309.941811 -1.81914,2.30692 -14.01469,4.32035 -17.25,2.84789 z"
       id="path1" />
    <path
       style="fill:#000000"
       d="m 126.32609,324.29496 c -1.1,-0.50063 -3.22167,-0.94187 -4.71482,-0.98052 -1.60851,-0.0417 -3.13666,-0.85851 -3.75,-2.00455 -1.63809,-3.0608 -1.42613,-308.694681 0.21482,-309.756721 1.81028,-1.17164 24.01917,-1.21337 25.5,-0.0479 1.83405,1.44344 1.83405,307.615981 0,309.941811 -1.81914,2.30692 -14.01469,4.32035 -17.25,2.84789 z m 11.125,-4.05081 h 2.375 V 168.20522 16.166279 l -8.75,0.28894 -8.75,0.28893 -0.27383,149.500001 c -0.1506,82.225 -0.0367,150.4841 0.25321,151.68688 0.56493,2.34409 4.4392,3.39602 9.89562,2.6868 1.58125,-0.20552 3.94375,-0.37368 5.25,-0.37368 z"
       id="path336" />
    <path
       inkscape:original-d="M 0,0"
       inkscape:path-effect="#path-effect29"
       d="m 1813.3261,325.31406 c -2.75,-0.33305 -5.5625,-0.96158 -6.25,-1.39674 -0.9912,-0.62738 -1.25,-32.75624 -1.25,-155.17317 0,-122.407431 0.2589,-154.549531 1.25,-155.190981 1.8103,-1.17164 24.0192,-1.21337 25.5,-0.0479 0.9903,0.77939 1.25,32.85901 1.25,154.403151 0,174.96109 1.1019,156.68877 -9.5,157.53326 -3.3,0.26286 -8.25,0.20543 -11,-0.12761 z"
       id="path29" />
    <path
       style="fill:#000000"
       d="m 1813.3261,325.31406 c -2.75,-0.33305 -5.5625,-0.96158 -6.25,-1.39674 -0.9912,-0.62738 -1.25,-32.75624 -1.25,-155.17317 0,-122.407431 0.2589,-154.549531 1.25,-155.190981 1.8103,-1.17164 24.0192,-1.21337 25.5,-0.0479 0.9903,0.77939 1.25,32.85901 1.25,154.403151 0,174.96109 1.1019,156.68877 -9.5,157.53326 -3.3,0.26286 -8.25,0.20543 -11,-0.12761 z m 14.6396,-3.06991 c 1.8057,0 1.8604,-4.46773 1.8604,-152 V 18.244149 h -10 -10 V 170.18378 322.12342 l 3.75,0.44114 c 2.0625,0.24263 5.7253,0.26979 8.1396,0.0604 2.4142,-0.20943 5.2267,-0.38078 6.25,-0.38078 z"
       id="path335" />
    <path
       inkscape:original-d="M 0,0"
       inkscape:path-effect="#path-effect9"
       d="m 596.32609,325.31406 c -2.75,-0.33305 -5.5625,-0.96158 -6.25,-1.39674 -0.99119,-0.62738 -1.25,-32.75624 -1.25,-155.17317 0,-122.407431 0.25889,-154.549531 1.25,-155.190981 1.81028,-1.17164 24.01917,-1.21337 25.5,-0.0479 0.99029,0.77939 1.25,32.85901 1.25,154.403151 0,174.96109 1.10191,156.68877 -9.5,157.53326 -3.3,0.26286 -8.25,0.20543 -11,-0.12761 z"
       id="path9" />
    <path
       style="fill:#000000"
       d="m 596.32609,325.31406 c -2.75,-0.33305 -5.5625,-0.96158 -6.25,-1.39674 -0.99119,-0.62738 -1.25,-32.75624 -1.25,-155.17317 0,-122.407431 0.25889,-154.549531 1.25,-155.190981 1.81028,-1.17164 24.01917,-1.21337 25.5,-0.0479 0.99029,0.77939 1.25,32.85901 1.25,154.403151 0,174.96109 1.10191,156.68877 -9.5,157.53326 -3.3,0.26286 -8.25,0.20543 -11,-0.12761 z m 14.63957,-3.06991 c 1.80575,0 1.86043,-4.46773 1.86043,-152 V 18.244149 h -10 -10 V 170.18378 322.12342 l 3.75,0.44114 c 2.0625,0.24263 5.72531,0.26979 8.13957,0.0604 2.41427,-0.20943 5.22677,-0.38078 6.25,-0.38078 z"
       id="path334" />
    <path
       d="m 331.32609,325.00928 c -1.1,-0.64574 -3.8,-1.41955 -6,-1.7196 l -4,-0.54553 -0.25313,-155.75 c -0.20195,-124.252551 2.8e-4,-155.761081 1,-155.804801 8.50052,-0.37168 23.71951,-0.084 24.60806,0.46514 1.69575,1.04803 1.6413,308.693431 -0.0549,310.389661 -0.66,0.66 -2.3475,1.21595 -3.75,1.23544 -1.4025,0.0195 -3.675,0.67854 -5.05,1.46456 -3.04128,1.73855 -3.92839,1.77473 -6.5,0.26513 z"
       id="path3"
       inkscape:original-d="M 0,0"
       inkscape:path-effect="#path-effect3" />
    <path
       style="fill:#000000"
       d="m 331.32609,325.00928 c -1.1,-0.64574 -3.8,-1.41955 -6,-1.7196 l -4,-0.54553 -0.25313,-155.75 c -0.20195,-124.252551 2.8e-4,-155.761081 1,-155.804801 8.50052,-0.37168 23.71951,-0.084 24.60806,0.46514 1.69575,1.04803 1.6413,308.693431 -0.0549,310.389661 -0.66,0.66 -2.3475,1.21595 -3.75,1.23544 -1.4025,0.0195 -3.675,0.67854 -5.05,1.46456 -3.04128,1.73855 -3.92839,1.77473 -6.5,0.26513 z m 10.63957,-4.76513 c 1.80575,0 1.86043,-4.46773 1.86043,-152 V 16.244149 h -9.5 -9.5 V 168.18079 320.11743 l 3.25,0.45233 c 1.7875,0.24878 5.22531,0.27729 7.63957,0.0634 2.41427,-0.21394 5.22677,-0.38897 6.25,-0.38897 z"
       id="path333" />
    <path
       inkscape:original-d="M 0,0"
       inkscape:path-effect="#path-effect31"
       d="m 2018.3261,326.29496 c -1.1,-0.50063 -3.4144,-0.94187 -5.143,-0.98052 -1.8942,-0.0424 -3.3842,-0.69878 -3.75,-1.65208 -0.3339,-0.86998 -0.607,-70.78988 -0.607,-155.37755 0,-121.848631 0.2597,-153.998821 1.25,-154.773261 1.6521,-1.29193 23.8944,-1.31441 25.5,-0.0258 1.834,1.47199 1.834,307.635501 0,309.961291 -1.8191,2.30692 -14.0147,4.32035 -17.25,2.84789 z"
       id="path31" />
    <path
       style="fill:#000000"
       d="m 2018.3261,326.29496 c -1.1,-0.50063 -3.4144,-0.94187 -5.143,-0.98052 -1.8942,-0.0424 -3.3842,-0.69878 -3.75,-1.65208 -0.3339,-0.86998 -0.607,-70.78988 -0.607,-155.37755 0,-121.848631 0.2597,-153.998821 1.25,-154.773261 1.6521,-1.29193 23.8944,-1.31441 25.5,-0.0258 1.834,1.47199 1.834,307.635501 0,309.961291 -1.8191,2.30692 -14.0147,4.32035 -17.25,2.84789 z m 11.25,-4.0398 2.25,-0.011 V 170.20522 18.166279 l -8.75,0.28894 -8.75,0.28893 -0.2738,149.500001 c -0.1506,82.225 -0.037,150.48272 0.2524,151.68381 0.5843,2.42445 3.8036,3.34417 9.5214,2.72017 1.925,-0.21008 4.5125,-0.38692 5.75,-0.39297 z"
       id="path332" />
    <path
       inkscape:original-d="M 0,0"
       inkscape:path-effect="#path-effect27"
       d="m 1747.3261,326.29496 c -1.1,-0.50063 -3.2217,-0.94187 -4.7148,-0.98052 -1.6085,-0.0417 -3.1367,-0.85851 -3.75,-2.00455 -1.6381,-3.0608 -1.4261,-308.694681 0.2148,-309.756721 1.8103,-1.17164 24.0192,-1.21337 25.5,-0.0479 1.834,1.44344 1.834,307.615981 0,309.941811 -1.8191,2.30692 -14.0147,4.32035 -17.25,2.84789 z"
       id="path27" />
    <path
       style="fill:#000000"
       d="m 1747.3261,326.29496 c -1.1,-0.50063 -3.2217,-0.94187 -4.7148,-0.98052 -1.6085,-0.0417 -3.1367,-0.85851 -3.75,-2.00455 -1.6381,-3.0608 -1.4261,-308.694681 0.2148,-309.756721 1.8103,-1.17164 24.0192,-1.21337 25.5,-0.0479 1.834,1.44344 1.834,307.615981 0,309.941811 -1.8191,2.30692 -14.0147,4.32035 -17.25,2.84789 z m 11.125,-4.05081 h 2.375 V 170.20522 18.166279 l -8.75,0.28894 -8.75,0.28893 -0.2738,149.500001 c -0.1506,82.225 -0.037,150.4841 0.2532,151.68688 0.5649,2.34409 4.4392,3.39602 9.8956,2.6868 1.5813,-0.20552 3.9438,-0.37368 5.25,-0.37368 z"
       id="path331" />
    <path
       inkscape:original-d="M 0,0"
       inkscape:path-effect="#path-effect11"
       d="m 801.32609,326.29496 c -1.1,-0.50063 -3.41436,-0.94187 -5.14301,-0.98052 -1.8942,-0.0424 -3.38419,-0.69878 -3.75,-1.65208 -0.33385,-0.86998 -0.60699,-70.78988 -0.60699,-155.37755 0,-121.848631 0.25966,-153.998821 1.25,-154.773261 1.65211,-1.29193 23.89442,-1.31441 25.5,-0.0258 0.99023,0.79476 1.25,32.94228 1.25,154.689691 0,121.43704 -0.2623,154.01905 -1.25,155.2716 -1.81914,2.30692 -14.01469,4.32035 -17.25,2.84789 z"
       id="path11" />
    <path
       style="fill:#000000"
       d="m 801.32609,326.29496 c -1.1,-0.50063 -3.41436,-0.94187 -5.14301,-0.98052 -1.8942,-0.0424 -3.38419,-0.69878 -3.75,-1.65208 -0.33385,-0.86998 -0.60699,-70.78988 -0.60699,-155.37755 0,-121.848631 0.25966,-153.998821 1.25,-154.773261 1.65211,-1.29193 23.89442,-1.31441 25.5,-0.0258 0.99023,0.79476 1.25,32.94228 1.25,154.689691 0,121.43704 -0.2623,154.01905 -1.25,155.2716 -1.81914,2.30692 -14.01469,4.32035 -17.25,2.84789 z m 11.25,-4.0398 2.25,-0.011 V 170.20522 18.166279 l -8.75,0.28894 -8.75,0.28893 -0.27383,149.500001 c -0.1506,82.225 -0.037,150.48272 0.25244,151.68381 0.58426,2.42445 3.80355,3.34417 9.52139,2.72017 1.925,-0.21008 4.5125,-0.38692 5.75,-0.39297 z"
       id="path330" />
    <path
       inkscape:original-d="M 0,0"
       inkscape:path-effect="#path-effect8"
       d="m 530.32609,326.29496 c -1.1,-0.50063 -3.22167,-0.94187 -4.71482,-0.98052 -1.60851,-0.0417 -3.13666,-0.85851 -3.75,-2.00455 -1.63809,-3.0608 -1.42613,-308.694681 0.21482,-309.756721 1.81028,-1.17164 24.01917,-1.21337 25.5,-0.0479 0.99031,0.7794 1.25,32.91242 1.25,154.670211 0,121.43704 -0.2623,154.01905 -1.25,155.2716 -1.81914,2.30692 -14.01469,4.32035 -17.25,2.84789 z"
       id="path8" />
    <path
       style="fill:#000000"
       d="m 530.32609,326.29496 c -1.1,-0.50063 -3.22167,-0.94187 -4.71482,-0.98052 -1.60851,-0.0417 -3.13666,-0.85851 -3.75,-2.00455 -1.63809,-3.0608 -1.42613,-308.694681 0.21482,-309.756721 1.81028,-1.17164 24.01917,-1.21337 25.5,-0.0479 0.99031,0.7794 1.25,32.91242 1.25,154.670211 0,121.43704 -0.2623,154.01905 -1.25,155.2716 -1.81914,2.30692 -14.01469,4.32035 -17.25,2.84789 z m 11.125,-4.05081 h 2.375 V 170.20522 18.166279 l -8.75,0.28894 -8.75,0.28893 -0.27383,149.500001 c -0.1506,82.225 -0.0367,150.4841 0.25321,151.68688 0.56493,2.34409 4.4392,3.39602 9.89562,2.6868 1.58125,-0.20552 3.94375,-0.37368 5.25,-0.37368 z"
       id="path329" />
    <path
       inkscape:original-d="M 0,0"
       inkscape:path-effect="#path-effect30"
       d="m 1952.3261,327.00928 c -1.1,-0.64574 -3.8,-1.41955 -6,-1.7196 l -4,-0.54553 -0.2531,-155.75 c -0.202,-124.252551 3e-4,-155.761081 1,-155.804801 8.5005,-0.37168 23.7195,-0.084 24.608,0.46514 1.6958,1.04803 1.6413,308.693431 -0.055,310.389661 -0.66,0.66 -2.3475,1.21595 -3.75,1.23544 -1.4025,0.0195 -3.675,0.67854 -5.05,1.46456 -3.0413,1.73855 -3.9284,1.77473 -6.5,0.26513 z"
       id="path30" />
    <path
       style="fill:#000000"
       d="m 1952.3261,327.00928 c -1.1,-0.64574 -3.8,-1.41955 -6,-1.7196 l -4,-0.54553 -0.2531,-155.75 c -0.202,-124.252551 3e-4,-155.761081 1,-155.804801 8.5005,-0.37168 23.7195,-0.084 24.608,0.46514 1.6958,1.04803 1.6413,308.693431 -0.055,310.389661 -0.66,0.66 -2.3475,1.21595 -3.75,1.23544 -1.4025,0.0195 -3.675,0.67854 -5.05,1.46456 -3.0413,1.73855 -3.9284,1.77473 -6.5,0.26513 z m 10.6396,-4.76513 c 1.8057,0 1.8604,-4.46773 1.8604,-152 V 18.244149 h -9.5 -9.5 V 170.18079 322.11743 l 3.25,0.45233 c 1.7875,0.24878 5.2253,0.27729 7.6396,0.0634 2.4142,-0.21394 5.2267,-0.38897 6.25,-0.38897 z"
       id="path328" />
    <path
       inkscape:original-d="M 0,0"
       inkscape:path-effect="#path-effect10"
       d="m 735.32609,327.00928 c -1.1,-0.64574 -3.8,-1.41955 -6,-1.7196 l -4,-0.54553 -0.25313,-155.75 c -0.20195,-124.252551 2.8e-4,-155.761081 1,-155.804801 8.50052,-0.37168 23.71951,-0.084 24.60806,0.46514 1.69575,1.04803 1.6413,308.693431 -0.0549,310.389661 -0.66,0.66 -2.3475,1.21595 -3.75,1.23544 -1.4025,0.0195 -3.675,0.67854 -5.05,1.46456 -3.04128,1.73855 -3.92839,1.77473 -6.5,0.26513 z"
       id="path10" />
    <path
       style="fill:#000000"
       d="m 735.32609,327.00928 c -1.1,-0.64574 -3.8,-1.41955 -6,-1.7196 l -4,-0.54553 -0.25313,-155.75 c -0.20195,-124.252551 2.8e-4,-155.761081 1,-155.804801 8.50052,-0.37168 23.71951,-0.084 24.60806,0.46514 1.69575,1.04803 1.6413,308.693431 -0.0549,310.389661 -0.66,0.66 -2.3475,1.21595 -3.75,1.23544 -1.4025,0.0195 -3.675,0.67854 -5.05,1.46456 -3.04128,1.73855 -3.92839,1.77473 -6.5,0.26513 z m 10.63957,-4.76513 c 1.80575,0 1.86043,-4.46773 1.86043,-152 V 18.244149 h -9.5 -9.5 V 170.18079 322.11743 l 3.25,0.45233 c 1.7875,0.24878 5.22531,0.27729 7.63957,0.0634 2.41427,-0.21394 5.22677,-0.38897 6.25,-0.38897 z"
       id="path327" />
    <path
       style="fill:#000000"
       d="m 1217.4745,471.40809 c -1.5217,-1.68137 -1.64,-7.92197 -1.405,-74.07591 l 0.2566,-72.23986 5,-2.75132 5,-2.75132 0.5,-152.92277 0.5,-152.922761 h 17 17 l 0.2364,151.500001 c 0.1784,114.26198 0.5271,152.05304 1.419,153.75 0.6504,1.2375 1.9514,2.25 2.8911,2.25 0.9398,0 2.2688,0.675 2.9535,1.5 0.6847,0.825 1.8648,1.5 2.6224,1.5 1.1576,0 1.3776,11.7068 1.3776,73.3 0,55.67778 -0.2885,73.58849 -1.2,74.5 -0.8709,0.87094 -8.2322,1.2 -26.845,1.2 -23.6117,0 -25.7768,-0.14557 -27.3066,-1.83606 z m 53.5275,-4.66394 c 0.3898,-2.2 0.7348,-34.63274 0.7665,-72.07274 l 0.058,-68.07275 -4.4884,-2.2416 c -8.2451,-4.11764 -7.512,11.28732 -7.512,-157.83542 V 15.244149 h -15.5 -15.5 V 167.05302 c 0,119.91772 -0.2626,152.14868 -1.25,153.42646 -0.6875,0.88967 -3.1625,2.59611 -5.5,3.79209 l -4.25,2.17451 v 70.81725 c 0,38.94948 0.276,71.53654 0.6134,72.41569 0.5437,1.41682 3.5243,1.56814 26.2335,1.33178 l 25.6201,-0.26665 z"
       id="path326" />
    <path
       style="fill:#000000"
       d="m 1149.4811,471.41541 c -1.5078,-1.66612 -1.655,-8.24893 -1.655,-74.02475 v -72.19601 l 2.25,-1.01819 c 3.441,-1.55713 6.7921,-3.57438 8.0842,-4.86641 0.8731,-0.87304 1.2913,-39.37868 1.6658,-153.36581 l 0.5,-152.200091 h 17 17 l 0.5,152.666751 c 0.275,83.96672 0.7976,152.96434 1.1614,153.32805 0.3637,0.3637 2.6137,1.70551 5,2.9818 l 4.3386,2.32051 0.2596,72.85145 c 0.241,67.6014 0.1371,72.94152 -1.4411,74.10144 -1.2563,0.92332 -8.4053,1.25 -27.3546,1.25 -23.5831,0 -25.7875,-0.14762 -27.3089,-1.82874 z m 54.1015,-72.81688 0.2566,-72.14562 -4.2566,-2.17792 c -2.3411,-1.19786 -4.819,-2.90584 -5.5065,-3.79551 -0.9874,-1.27778 -1.25,-33.50874 -1.25,-153.42646 V 15.244149 h -15.5 -15.5 V 165.79381 c 0,168.43097 0.6585,154.48287 -7.4857,158.55031 l -4.5143,2.25454 v 70.74096 c 0,38.90752 0.276,71.46013 0.6133,72.33912 0.5439,1.41741 3.5695,1.56804 26.75,1.33179 l 26.1367,-0.26638 z"
       id="path325"
       sodipodi:nodetypes="sscssscccssscssssccssscccsscssscc" />
    <path
       style="fill:#000000"
       d="m 1081.9464,471.88909 c -0.8272,-0.99672 -1.0579,-61.75509 -0.8725,-229.75 l 0.2522,-228.394941 22.25,-0.26913 22.25,-0.26913 0.01,149.769131 c 0,98.24704 0.3548,151.02636 1.0207,153.42378 0.8093,2.91372 1.9738,4.15683 5.7444,6.13174 l 4.7293,2.47711 v 73.15488 c 0,63.93854 -0.189,73.27432 -1.5,74.10294 -0.8427,0.53263 -12.7295,0.95476 -27.1276,0.96337 -20.3562,0.0122 -25.8588,-0.26341 -26.7521,-1.33975 z m 53.2727,-2.22673 c 0.3339,-0.86998 0.607,-33.31035 0.607,-72.0897 v -70.50792 l -2.25,-1.87703 c -1.2375,-1.03236 -2.9857,-1.89199 -3.885,-1.91029 -0.8992,-0.0183 -2.3603,-1.14022 -3.2468,-2.49316 -1.4615,-2.23063 -1.6353,-16.56032 -1.865,-153.75 l -0.2532,-151.290111 -20.75,-0.27029 -20.75,-0.27029 V 242.55719 c 0,125.0445 0.3,227.65363 0.6667,228.02029 0.3666,0.36667 12.0185,0.66667 25.893,0.66667 22.0806,0 25.302,-0.19725 25.8333,-1.58179 z"
       id="path324" />
    <path
       style="fill:#000000"
       d="m 1013.3828,471.02164 c -1.3739,-1.96144 -1.5567,-10.65658 -1.5567,-74.02475 v -71.80224 l 2.25,-0.97286 c 1.2375,-0.53508 2.925,-1.39147 3.75,-1.9031 0.825,-0.51163 2.2594,-1.16283 3.1877,-1.44711 0.9283,-0.28428 2.1633,-2.22925 2.7445,-4.32215 0.7205,-2.5946 1.0584,-51.45571 1.0622,-153.57441 l 0.01,-149.769131 22.25,0.26913 22.25,0.26913 0.2522,228.394941 c 0.1854,167.99491 -0.045,228.75328 -0.8725,229.75 -0.894,1.07728 -6.5203,1.35506 -27.4454,1.35506 -26.0657,0 -26.336,-0.0215 -27.8776,-2.22251 z m 54.1955,-227.91967 c 0.2012,-181.638521 -9e-4,-227.714501 -1,-228.000011 -0.6887,-0.19679 -10.1397,-0.22688 -21.0022,-0.0669 l -19.75,0.29097 -0.015,151.709041 c -0.01,89.53398 -0.3888,152.29924 -0.9265,153.14915 -0.8813,1.39278 -5.7175,4.32786 -9.3082,5.64918 -1.6443,0.60505 -1.75,4.94563 -1.75,71.82733 0,54.5661 0.2839,71.46734 1.2164,72.39981 0.9062,0.90617 7.7294,1.14849 26.75,0.95 l 25.5333,-0.26644 z"
       id="path323" />
    <path
       style="fill:#000000"
       d="m 946.47446,471.40809 c -1.52163,-1.68137 -1.63999,-7.92197 -1.40499,-74.07591 l 0.25662,-72.23986 5,-2.75132 5,-2.75132 0.5,-152.92277 0.5,-152.922761 h 17 17.00003 l 0.5,152.200091 c 0.3744,113.98713 0.7927,152.49277 1.6658,153.36581 1.2983,1.29825 4.6538,3.31523 8.11558,4.87835 l 2.2814,1.03013 -0.2814,72.35972 c -0.2316,59.55147 -0.5244,72.65233 -1.6539,74.01281 -1.21128,1.45904 -4.39188,1.65309 -27.09497,1.65309 -23.68697,0 -25.85406,-0.1453 -27.38417,-1.83606 z m 53.31646,-2.0982 c 0.68538,-1.28078 1.03518,-25.71452 1.03518,-72.32274 v -70.38849 l -4.48838,-2.2416 c -8.2448,-4.11764 -7.5116,11.28732 -7.5116,-157.83542 V 15.244149 h -15.50003 -15.5 V 167.05302 c 0,119.91772 -0.26259,152.14868 -1.25,153.42646 -0.6875,0.88967 -3.1625,2.59611 -5.5,3.79209 l -4.25,2.17451 v 70.81725 c 0,38.94948 0.27314,71.52905 0.60699,72.39903 0.53141,1.38484 3.76428,1.58179 25.96482,1.58179 24.04712,0 25.41132,-0.1 26.39302,-1.93426 z"
       id="path322" />
    <path
       style=""
       d="M 863.82617,18.244141 V 170.18359 322.12305 l 3.75,0.4414 c 2.0625,0.24263 5.72441,0.26994 8.13867,0.0605 2.41427,-0.20943 5.22677,-0.38086 6.25,-0.38086 1.80575,0 1.86133,-4.46773 1.86133,-152 V 18.244141 h -10 z"
       id="path14" />
    <path
       d="M 887.82617,18.267552 V 172.23239 c 0,151.19704 -0.0341,153.98342 -1.93359,155 -1.06384,0.56935 -3.08884,1.03516 -4.5,1.03516 h -2.56641 v 71.41797 c 0,39.28002 0.27597,72.13859 0.61328,73.01758 0.5439,1.41741 3.56954,1.56633 26.75,1.33008 l 26.13672,-0.26563 0.25586,-72.14648 0.25781,-72.14454 -4.25781,-2.17773 c -2.3411,-1.19786 -4.81836,-2.9072 -5.50586,-3.79687 -0.98741,-1.27778 -1.25,-33.50807 -1.25,-153.42579 V 18.267552 h -17 z"
       id="path13"
       style="fill:#ffffff;stroke:url(#linearGradient15);filter:url(#filter15)" />
    <path
       style="fill:#000000"
       d="m 1617.4745,472.40809 c -1.5217,-1.68137 -1.64,-7.92197 -1.405,-74.07591 l 0.2566,-72.23986 5,-2.75132 5,-2.75132 0.5,-152.92277 0.5,-152.922761 h 17 17 l 0.2364,151.500001 c 0.1784,114.26198 0.5271,152.05304 1.419,153.75 0.6504,1.2375 1.9514,2.25 2.8911,2.25 0.9398,0 2.2688,0.675 2.9535,1.5 0.6847,0.825 1.8648,1.5 2.6224,1.5 1.1576,0 1.3776,11.7068 1.3776,73.3 0,55.67778 -0.2885,73.58849 -1.2,74.5 -0.8709,0.87094 -8.2322,1.2 -26.845,1.2 -23.6117,0 -25.7768,-0.14557 -27.3066,-1.83606 z m 53.5275,-4.66394 c 0.3898,-2.2 0.7348,-34.63274 0.7665,-72.07274 l 0.058,-68.07275 -4.4884,-2.2416 c -8.2451,-4.11764 -7.512,11.28732 -7.512,-157.83542 V 16.244149 h -15.5 -15.5 V 168.05302 c 0,119.91772 -0.2626,152.14868 -1.25,153.42646 -0.6875,0.88967 -3.1625,2.59611 -5.5,3.79209 l -4.25,2.17451 v 70.81725 c 0,38.94948 0.276,71.53654 0.6134,72.41569 0.5437,1.41682 3.5243,1.56814 26.2335,1.33178 l 25.6201,-0.26665 z"
       id="path320" />
    <path
       style="fill:#000000"
       d="m 1549.4811,472.41541 c -1.5078,-1.66612 -1.655,-8.24893 -1.655,-74.02475 v -72.19601 l 2.25,-1.01819 c 3.441,-1.55713 6.7921,-3.57438 8.0842,-4.86641 0.8731,-0.87304 1.2913,-39.37868 1.6658,-153.36581 l 0.5,-152.200091 h 17 17 l 0.5,152.666751 c 0.275,83.96672 0.7976,152.96434 1.1614,153.32805 0.3637,0.3637 2.6137,1.70551 5,2.9818 l 4.3386,2.32051 0.2596,72.85145 c 0.241,67.6014 0.1371,72.94152 -1.4411,74.10144 -1.2563,0.92332 -8.4053,1.25 -27.3546,1.25 -23.5831,0 -25.7875,-0.14762 -27.3089,-1.82874 z m 54.1015,-72.81688 0.2566,-72.14562 -4.2566,-2.17792 c -2.3411,-1.19786 -4.819,-2.90584 -5.5065,-3.79551 -0.9874,-1.27778 -1.25,-33.50874 -1.25,-153.42646 V 16.244149 h -15.5 -15.5 V 166.79381 c 0,168.43097 0.6585,154.48287 -7.4857,158.55031 l -4.5143,2.25454 v 70.74096 c 0,38.90752 0.276,71.46013 0.6133,72.33912 0.5439,1.41741 3.5695,1.56804 26.75,1.33179 l 26.1367,-0.26638 z"
       id="path319" />
    <path
       style="fill:#000000"
       d="m 1481.9464,472.88909 c -0.8272,-0.99672 -1.0579,-61.75509 -0.8725,-229.75 l 0.2522,-228.394941 22.25,-0.26913 22.25,-0.26913 0.01,149.769131 c 0,98.24704 0.3548,151.02636 1.0207,153.42378 0.8093,2.91372 1.9738,4.15683 5.7444,6.13174 l 4.7293,2.47711 v 73.15488 c 0,63.93854 -0.189,73.27432 -1.5,74.10294 -0.8427,0.53263 -12.7295,0.95476 -27.1276,0.96337 -20.3562,0.0122 -25.8588,-0.26341 -26.7521,-1.33975 z m 53.2727,-2.22673 c 0.3339,-0.86998 0.607,-33.31035 0.607,-72.0897 v -70.50792 l -2.25,-1.87703 c -1.2375,-1.03236 -2.9857,-1.89199 -3.885,-1.91029 -0.8992,-0.0183 -2.3603,-1.14022 -3.2468,-2.49316 -1.4615,-2.23063 -1.6353,-16.56032 -1.865,-153.75 l -0.2532,-151.290111 -20.75,-0.27029 -20.75,-0.27029 V 243.55719 c 0,125.0445 0.3,227.65363 0.6667,228.02029 0.3666,0.36667 12.0185,0.66667 25.893,0.66667 22.0806,0 25.302,-0.19725 25.8333,-1.58179 z"
       id="path318" />
    <path
       style="fill:#000000"
       d="m 1413.3828,472.02164 c -1.3738,-1.96144 -1.5567,-10.65658 -1.5567,-74.02475 v -71.80224 l 2.25,-0.97286 c 1.2375,-0.53508 2.925,-1.39147 3.75,-1.9031 0.825,-0.51163 2.2595,-1.16283 3.1877,-1.44711 0.9283,-0.28428 2.1633,-2.22925 2.7445,-4.32215 0.7205,-2.5946 1.0584,-51.45571 1.0622,-153.57441 l 0.01,-149.769131 22.25,0.26913 22.25,0.26913 0.2522,228.394941 c 0.1854,167.99491 -0.045,228.75328 -0.8725,229.75 -0.894,1.07728 -6.5203,1.35506 -27.4454,1.35506 -26.0656,0 -26.336,-0.0215 -27.8776,-2.22251 z m 54.1955,-227.91967 c 0.2012,-181.638521 -9e-4,-227.714501 -1,-228.000011 -0.6887,-0.19679 -10.1397,-0.22688 -21.0022,-0.0669 l -19.75,0.29097 -0.015,151.709041 c -0.01,89.53398 -0.3888,152.29924 -0.9265,153.14915 -0.8813,1.39278 -5.7174,4.32786 -9.3082,5.64918 -1.6442,0.60505 -1.75,4.94563 -1.75,71.82733 0,54.5661 0.284,71.46734 1.2164,72.39981 0.9062,0.90617 7.7294,1.14849 26.75,0.95 l 25.5333,-0.26644 z"
       id="path317" />
    <path
       style="fill:#000000"
       d="m 1346.4745,472.40809 c -1.5217,-1.68137 -1.64,-7.92197 -1.405,-74.07591 l 0.2566,-72.23986 5,-2.75132 5,-2.75132 0.1641,-50.18843 0.3359,-102.73434 0.5,-152.922761 h 17 17 l 0.5,152.200091 c 0.3745,113.98713 0.7927,152.49277 1.6658,153.36581 1.2984,1.29825 4.6538,3.31523 8.1156,4.87835 l 2.2814,1.03013 -0.2814,72.35972 c -0.2316,59.55147 -0.5243,72.65233 -1.6538,74.01281 -1.2114,1.45904 -4.392,1.65309 -27.0951,1.65309 -23.6869,0 -25.854,-0.1453 -27.3841,-1.83606 z m 53.3164,-2.0982 c 0.6855,-1.28078 1.0352,-25.71452 1.0352,-72.32274 v -70.38849 l -4.4884,-2.2416 c -8.2447,-4.11764 -7.5116,11.28732 -7.5116,-157.83542 V 16.244149 h -15.5 -15.5 V 168.05302 c 0,119.91772 -0.2626,152.14868 -1.25,153.42646 -0.6875,0.88967 -3.1625,2.59611 -5.5,3.79209 l -4.25,2.17451 v 70.81725 c 0,38.94948 0.2731,71.52905 0.607,72.39903 0.5314,1.38484 3.7643,1.58179 25.9648,1.58179 24.0471,0 25.4113,-0.1 26.393,-1.93426 z"
       id="path316" />
    <path
       style="fill:#ffffff"
       d="M 1292.8262,16.244141 V 166.70898 c 0,147.73669 -0.034,150.48358 -1.9336,151.5 -1.0638,0.56935 -3.5037,1.03516 -5.4199,1.03516 -7.2545,0 -6.6465,-6.89664 -6.6465,75.52539 0,40.87117 0.276,75.03117 0.6133,75.91016 0.5439,1.41741 3.5695,1.56633 26.75,1.33008 l 26.1367,-0.26563 0.2558,-72.14648 0.2578,-72.14454 -4.2578,-2.17773 c -2.3411,-1.19786 -4.8183,-2.9072 -5.5058,-3.79687 -0.9874,-1.27778 -1.25,-33.50807 -1.25,-153.42579 V 16.244141 h -14.5 z"
       id="path37" />
    <path
       d="m 1268.8262,12.244141 v 108.189449 43.75 151.93946 l 3.75,0.4414 c 2.0625,0.24263 5.7243,0.26994 8.1386,0.0605 2.4142,-0.20943 5.2267,-0.38086 6.25,-0.38086 1.8057,0 1.8614,-4.46773 1.8614,-152 V 12.244141 h -10 z"
       id="path36"
       sodipodi:nodetypes="ccccssssccc" />
    <path
       d="m 1271.2754,6.3144531 c -2.2275,-0.03865 -4.59,0.4689063 -5.25,1.1289063 -0.923,0.92296 -1.1992,36.8144226 -1.1992,155.4648406 0,151.49364 0.034,154.28419 1.9336,155.30078 1.0638,0.56935 3.7638,1.03516 6,1.03516 h 4.0664 v 75.27734 c 0,66.51355 0.1811,75.53625 1.5566,77.5 1.5402,2.19901 1.8304,2.22266 27.3457,2.22266 23.7508,0 25.9189,-0.14495 27.4492,-1.83594 1.5217,-1.68138 1.6393,-7.92382 1.4043,-74.10156 l -0.2558,-72.26562 -4.3379,-2.32032 c -2.3863,-1.27629 -4.6363,-2.61872 -5,-2.98242 -0.3638,-0.36371 -0.8871,-69.3614 -1.1621,-153.32812 l -0.5,-152.666019 -15.25,-0.275391 -15.25,-0.277344 v -2.851562 c 0,-4.4882503 -2.047,-5.469134 -9.7676,-4.683594 -3.7033,0.37679 -7.8574,0.8956737 -9.2324,1.1523437 -1.1134,0.2078274 -1.6768,0.2938313 -1.7324,0.2207032 v -0.00195 -0.00195 -0.00195 -0.00195 -0.00195 -0.00195 c 0.01,-0.084416 0.4298,-0.3054565 1.2383,-0.6875 1.6367,-0.7734 1.2635,-0.958125 -2.0508,-1.015625 z m -2.4492,5.9296879 h 10 10 V 164.24414 c 0,147.53227 -0.056,152 -1.8614,152 -1.0233,0 -3.8358,0.17143 -6.25,0.38086 -2.4143,0.20939 -6.0761,0.18208 -8.1386,-0.0605 l -3.75,-0.4414 v -151.93946 -43.75 z m 24,4 h 14.5 14.5 V 168.05273 c 0,119.91772 0.2626,152.14801 1.25,153.42579 0.6875,0.88967 3.1647,2.59901 5.5058,3.79687 l 4.2578,2.17773 -0.2578,72.14454 -0.2558,72.14648 -26.1367,0.26563 c -23.1805,0.23625 -26.2061,0.0873 -26.75,-1.33008 -0.3373,-0.87899 -0.6133,-35.03899 -0.6133,-75.91016 0,-82.42203 -0.608,-75.52539 6.6465,-75.52539 1.9162,0 4.3561,-0.46581 5.4199,-1.03516 1.8993,-1.01642 1.9336,-3.76331 1.9336,-151.5 z"
       id="path35"
       sodipodi:nodetypes="ssssscssssccssscccsssccccccsssscccsssccccccccsscccccsssssc" />
    <path
       style="fill:#000000"
       d="m 408.47446,475.40809 c -1.52163,-1.68137 -1.63999,-7.92197 -1.40499,-74.07591 l 0.25662,-72.23986 5,-2.75132 5,-2.75132 0.5,-152.92277 0.5,-152.922761 h 17 17 l 0.23644,151.500001 c 0.17832,114.26198 0.5271,152.05304 1.41898,153.75 0.65039,1.2375 1.9514,2.25 2.89111,2.25 0.93972,0 2.26878,0.675 2.95347,1.5 0.68469,0.825 1.86479,1.5 2.62244,1.5 1.15755,0 1.37756,11.7068 1.37756,73.3 0,55.67778 -0.28849,73.58849 -1.2,74.5 -0.87094,0.87094 -8.23222,1.2 -26.84501,1.2 -23.61173,0 -25.77676,-0.14557 -27.30662,-1.83606 z m 53.52748,-4.66394 c 0.38989,-2.2 0.73482,-34.63274 0.76652,-72.07274 l 0.0576,-68.07275 -4.48836,-2.2416 c -8.24479,-4.11764 -7.51164,11.28732 -7.51164,-157.83542 V 19.244149 h -15.5 -15.5 V 171.05302 c 0,119.91772 -0.26259,152.14868 -1.25,153.42646 -0.6875,0.88967 -3.1625,2.59611 -5.5,3.79209 l -4.25,2.17451 v 70.81725 c 0,38.94948 0.27602,71.53654 0.61338,72.41569 0.54369,1.41682 3.52435,1.56814 26.23348,1.33178 l 25.62011,-0.26665 z"
       id="path314" />
    <path
       style="fill:#000000"
       d="m 340.48108,475.41541 c -1.50782,-1.66612 -1.65499,-8.24893 -1.65499,-74.02475 v -72.19601 l 2.25,-1.01819 c 3.44096,-1.55713 6.79206,-3.57438 8.08418,-4.86641 0.87312,-0.87304 1.29136,-39.37868 1.66582,-153.36581 l 0.5,-152.200091 h 17 17 l 0.5,152.666751 c 0.275,83.96672 0.79762,152.96434 1.16137,153.32805 0.36376,0.3637 2.61376,1.70551 5,2.9818 l 4.33863,2.32051 0.25964,72.85145 c 0.24092,67.6014 0.13707,72.94152 -1.44113,74.10144 -1.25628,0.92332 -8.40529,1.25 -27.35465,1.25 -23.58307,0 -25.78748,-0.14762 -27.30887,-1.82874 z m 54.10156,-72.81688 0.25654,-72.14562 -4.25654,-2.17792 c -2.3411,-1.19786 -4.81905,-2.90584 -5.50655,-3.79551 -0.98741,-1.27778 -1.25,-33.50874 -1.25,-153.42646 V 19.244149 h -15.5 -15.5 V 169.79381 c 0,168.43097 0.65854,154.48287 -7.48571,158.55031 l -4.51429,2.25454 v 70.74096 c 0,38.90752 0.27597,71.46013 0.61328,72.33912 0.5439,1.41741 3.56954,1.56804 26.75,1.33179 l 26.13672,-0.26638 z"
       id="path313"
       sodipodi:nodetypes="sscssscccssscssssccssscccsscssscc" />
    <path
       style="fill:#000000"
       d="m 272.94638,475.88909 c -0.8272,-0.99672 -1.05792,-61.75509 -0.87245,-229.75 l 0.25216,-228.394941 22.25,-0.26913 22.25,-0.26913 0.006,149.769131 c 0.004,98.24704 0.35478,151.02636 1.02067,153.42378 0.80931,2.91372 1.9739,4.15683 5.74443,6.13174 l 4.7289,2.47711 v 73.15488 c 0,63.93854 -0.18898,73.27432 -1.5,74.10294 -0.84273,0.53263 -12.72952,0.95476 -27.12756,0.96337 -20.35622,0.0122 -25.85887,-0.26341 -26.75215,-1.33975 z m 53.27272,-2.22673 c 0.33385,-0.86998 0.60699,-33.31035 0.60699,-72.0897 v -70.50792 l -2.25,-1.87703 c -1.2375,-1.03236 -2.98575,-1.89199 -3.88499,-1.91029 -0.89924,-0.0183 -2.36029,-1.14022 -3.24677,-2.49316 -1.46156,-2.23063 -1.63539,-16.56032 -1.86501,-153.75 l -0.25323,-151.290111 -20.75,-0.27029 -20.75,-0.27029 V 246.55719 c 0,125.0445 0.3,227.65363 0.66667,228.02029 0.36666,0.36667 12.01852,0.66667 25.89301,0.66667 22.08063,0 25.30203,-0.19725 25.83333,-1.58179 z"
       id="path312" />
    <path
       style="fill:#000000"
       d="m 204.38279,475.02164 c -1.37385,-1.96144 -1.5567,-10.65658 -1.5567,-74.02475 v -71.80224 l 2.25,-0.97286 c 1.2375,-0.53508 2.925,-1.39147 3.75,-1.9031 0.825,-0.51163 2.25948,-1.16283 3.18773,-1.44711 0.92826,-0.28428 2.16325,-2.22925 2.74443,-4.32215 0.72049,-2.5946 1.05846,-51.45571 1.06226,-153.57441 l 0.006,-149.769131 22.25,0.26913 22.25,0.26913 0.25216,228.394941 c 0.18547,167.99491 -0.0453,228.75328 -0.87245,229.75 -0.89406,1.07728 -6.5203,1.35506 -27.44545,1.35506 -26.0656,0 -26.33595,-0.0215 -27.87756,-2.22251 z m 54.19546,-227.91967 c 0.2012,-181.638521 -8.9e-4,-227.714501 -1,-228.000011 -0.68869,-0.19679 -10.13966,-0.22688 -21.00216,-0.0668 l -19.75,0.29096 -0.0153,151.709041 c -0.009,89.53398 -0.38876,152.29924 -0.92652,153.14915 -0.88125,1.39278 -5.71739,4.32786 -9.30817,5.64918 -1.64425,0.60505 -1.75,4.94563 -1.75,71.82733 0,54.5661 0.28397,71.46734 1.21644,72.39981 0.90617,0.90617 7.72935,1.14849 26.75,0.95 l 25.53356,-0.26644 z"
       id="path311"
       sodipodi:nodetypes="cscssssccccsssccssccsssssscs" />
    <path
       style="fill:#000000"
       d="m 137.47446,475.40809 c -1.52163,-1.68137 -1.63999,-7.92197 -1.40499,-74.07591 l 0.25662,-72.23986 5,-2.75132 5,-2.75132 0.5,-152.92277 0.5,-152.922761 h 17 17 l 0.5,152.200091 c 0.37446,113.98713 0.7927,152.49277 1.66582,153.36581 1.29834,1.29825 4.65377,3.31523 8.11558,4.87835 l 2.28141,1.03013 -0.28141,72.35972 c -0.23159,59.55147 -0.52433,72.65233 -1.65384,74.01281 -1.21134,1.45904 -4.39193,1.65309 -27.09502,1.65309 -23.68697,0 -25.85406,-0.1453 -27.38417,-1.83606 z m 53.31645,-2.0982 c 0.68545,-1.28078 1.03518,-25.71452 1.03518,-72.32274 v -70.38849 l -4.48836,-2.2416 c -8.24479,-4.11764 -7.51164,11.28732 -7.51164,-157.83542 V 19.244149 h -15.5 -15.5 V 171.05302 c 0,119.91772 -0.26259,152.14868 -1.25,153.42646 -0.6875,0.88967 -3.1625,2.59611 -5.5,3.79209 l -4.25,2.17451 v 70.81725 c 0,38.94948 0.27314,71.52905 0.60699,72.39903 0.53141,1.38484 3.76428,1.58179 25.96482,1.58179 24.04708,0 25.41133,-0.1 26.39301,-1.93426 z"
       id="path310"
       sodipodi:nodetypes="sscccccccssscsssssscsscccssscssss" />
    <path
       style="fill:#000000"
       d="m 69.346971,474.91637 c -1.357552,-2.07189 -1.497501,-27.32875 -1.273053,-229.75 L 68.326087,17.744149 h 23.000002 23.000001 l 0.5,152.666751 c 0.275,83.96672 0.79762,152.96434 1.16137,153.32805 0.36376,0.3637 2.61376,1.70551 5,2.9818 l 4.33863,2.32051 0.25662,72.26539 c 0.235,66.17774 0.11665,72.42006 -1.40499,74.10144 -1.53043,1.69111 -3.70016,1.83606 -27.483571,1.83606 H 70.872193 Z m 54.235669,-72.31784 0.25654,-72.14562 -4.25654,-2.17792 c -2.34111,-1.19786 -4.81905,-2.90584 -5.50655,-3.79551 -0.98741,-1.27778 -1.25,-33.50874 -1.25,-153.42646 V 19.244149 H 91.326089 69.826087 V 245.66236 c 0,124.53002 0.275974,227.13739 0.613275,228.01638 0.543909,1.41741 3.569544,1.56804 26.749997,1.33179 l 26.136731,-0.26638 z"
       id="path309" />
    <path
       style="fill:#000000"
       d="m 2029.4924,477.42786 c -1.5452,-1.70735 -1.659,-7.63539 -1.4229,-74.09568 l 0.2566,-72.23986 5,-2.75132 5,-2.75132 0.5,-152.92277 0.5,-152.922761 h 17 17 l 0.2295,119.500001 c 0.1263,65.725 -0.099,169 -0.5,229.5 l -0.7295,110 -20.5771,0.26976 c -18.9716,0.24872 -20.7082,0.12496 -22.2566,-1.58605 z m 41.668,-116.43371 c 0.3656,-63.9375 0.665,-166.5375 0.6652,-228 l 5e-4,-111.750001 h -15.5 -15.5 V 173.05302 c 0,119.91772 -0.2626,152.14868 -1.25,153.42646 -0.6875,0.88967 -3.1625,2.59611 -5.5,3.79209 l -4.25,2.17451 v 70.81725 c 0,38.94948 0.2731,71.52905 0.607,72.39903 0.5251,1.36842 3.2681,1.58179 20.3347,1.58179 h 19.7278 z"
       id="path308" />
    <path
       style="fill:#000000"
       d="m 1961.4811,477.41541 c -1.5078,-1.66612 -1.655,-8.24893 -1.655,-74.02475 v -72.19601 l 2.25,-1.01819 c 3.441,-1.55713 6.7921,-3.57438 8.0842,-4.86641 0.8731,-0.87304 1.2913,-39.37868 1.6658,-153.36581 l 0.5,-152.200091 h 17 17 l 0.5,152.666751 c 0.275,83.96672 0.7976,152.96434 1.1614,153.32805 0.3637,0.3637 2.6137,1.70551 5,2.9818 l 4.3386,2.32051 0.2596,72.85145 c 0.241,67.6014 0.1371,72.94152 -1.4411,74.10144 -1.2563,0.92332 -8.4053,1.25 -27.3546,1.25 -23.5831,0 -25.7875,-0.14762 -27.3089,-1.82874 z m 54.1015,-72.81688 0.2566,-72.14562 -4.2566,-2.17792 c -2.3411,-1.19786 -4.819,-2.90584 -5.5065,-3.79551 -0.9874,-1.27778 -1.25,-33.50874 -1.25,-153.42646 V 21.244149 h -15.5 -15.5 V 171.79381 c 0,168.43097 0.6585,154.48287 -7.4857,158.55031 l -4.5143,2.25454 v 70.74096 c 0,38.90752 0.276,71.46013 0.6133,72.33912 0.5439,1.41741 3.5695,1.56804 26.75,1.33179 l 26.1367,-0.26638 z"
       id="path307" />
    <path
       style="fill:#000000"
       d="m 1893.9464,477.88909 c -0.8272,-0.99672 -1.0579,-61.75509 -0.8725,-229.75 l 0.2522,-228.394941 22.25,-0.26913 22.25,-0.26913 0.01,149.769131 c 0,98.24704 0.3548,151.02636 1.0207,153.42378 0.8093,2.91372 1.9738,4.15683 5.7444,6.13174 l 4.7293,2.47711 v 73.15488 c 0,63.93854 -0.189,73.27432 -1.5,74.10294 -0.8427,0.53263 -12.7295,0.95476 -27.1276,0.96337 -20.3562,0.0122 -25.8588,-0.26341 -26.7521,-1.33975 z m 53.2727,-2.22673 c 0.3339,-0.86998 0.607,-33.31035 0.607,-72.0897 v -70.50792 l -2.25,-1.87703 c -1.2375,-1.03236 -2.9857,-1.89199 -3.885,-1.91029 -0.8992,-0.0183 -2.3603,-1.14022 -3.2468,-2.49316 -1.4615,-2.23063 -1.6353,-16.56032 -1.865,-153.75 l -0.2532,-151.290111 -20.75,-0.27029 -20.75,-0.27029 V 248.55719 c 0,125.0445 0.3,227.65363 0.6667,228.02029 0.3666,0.36667 12.0185,0.66667 25.893,0.66667 22.0806,0 25.302,-0.19725 25.8333,-1.58179 z"
       id="path306" />
    <path
       style="fill:#000000"
       d="m 1825.3828,477.02164 c -1.3738,-1.96144 -1.5567,-10.65658 -1.5567,-74.02475 v -71.80224 l 2.25,-0.97286 c 1.2375,-0.53508 2.925,-1.39147 3.75,-1.9031 0.825,-0.51163 2.2595,-1.16283 3.1877,-1.44711 0.9283,-0.28428 2.1633,-2.22925 2.7445,-4.32215 0.7205,-2.5946 1.0584,-51.45571 1.0622,-153.57441 l 0.01,-149.769131 22.25,0.26913 22.25,0.26913 0.2522,228.394941 c 0.1854,167.99491 -0.045,228.75328 -0.8725,229.75 -0.894,1.07728 -6.5203,1.35506 -27.4454,1.35506 -26.0656,0 -26.336,-0.0215 -27.8776,-2.22251 z m 54.1955,-227.91967 c 0.2012,-181.638521 -9e-4,-227.714501 -1,-228.000011 -0.6887,-0.19679 -10.1397,-0.22688 -21.0022,-0.0669 l -19.75,0.29097 -0.015,151.709041 c -0.01,89.53398 -0.3888,152.29924 -0.9265,153.14915 -0.8813,1.39278 -5.7174,4.32786 -9.3082,5.64918 -1.6442,0.60505 -1.75,4.94563 -1.75,71.82733 0,54.5661 0.284,71.46734 1.2164,72.39981 0.9062,0.90617 7.7294,1.14849 26.75,0.95 l 25.5333,-0.26644 z"
       id="path305" />
    <path
       style="fill:#000000"
       d="m 1758.4745,477.40809 c -1.5217,-1.68137 -1.64,-7.92197 -1.405,-74.07591 l 0.2566,-72.23986 5,-2.75132 5,-2.75132 0.5,-152.92277 0.5,-152.922761 h 17 17 l 0.5,152.200091 c 0.3745,113.98713 0.7927,152.49277 1.6658,153.36581 1.2984,1.29825 4.6538,3.31523 8.1156,4.87835 l 2.2814,1.03013 -0.2814,72.35972 c -0.2316,59.55147 -0.5243,72.65233 -1.6538,74.01281 -1.2114,1.45904 -4.392,1.65309 -27.0951,1.65309 -23.6869,0 -25.854,-0.1453 -27.3841,-1.83606 z m 53.3164,-2.0982 c 0.6855,-1.28078 1.0352,-25.71452 1.0352,-72.32274 v -70.38849 l -4.4884,-2.2416 c -8.2447,-4.11764 -7.5116,11.28732 -7.5116,-157.83542 V 21.244149 h -15.5 -15.5 V 173.05302 c 0,119.91772 -0.2626,152.14868 -1.25,153.42646 -0.6875,0.88967 -3.1625,2.59611 -5.5,3.79209 l -4.25,2.17451 v 70.81725 c 0,38.94948 0.2731,71.52905 0.607,72.39903 0.5314,1.38484 3.7643,1.58179 25.9648,1.58179 24.0471,0 25.4113,-0.1 26.393,-1.93426 z"
       id="path304" />
    <path
       d="M 1692.8262,18.76099 V 167.2024 c 0,97.88197 -0.3406,148.65106 -1,149.05859 -1.0936,0.67589 -1.4717,154.10812 -0.3867,156.93555 0.5439,1.41741 3.5695,1.56633 26.75,1.33008 l 26.1367,-0.26563 0.2558,-72.14648 0.2578,-72.14454 -4.2578,-2.17773 c -2.3411,-1.19786 -4.8183,-2.9072 -5.5058,-3.79687 -0.9874,-1.27778 -1.25,-33.50807 -1.25,-153.42579 V 18.76099 h -20.5 z"
       id="path26"
       sodipodi:nodetypes="cssscccccssccc"
       style="fill:#ffffff" />
    <path
       d="m 1668.8262,10.76099 v 122.08789 29.85156 151.93946 l 3.75,0.4414 c 2.0625,0.24263 5.7243,0.26994 8.1386,0.0605 2.4142,-0.20943 5.2267,-0.38086 6.25,-0.38086 1.8057,0 1.8614,-4.46773 1.8614,-152 V 10.76099 h -10 z"
       id="path25" />
    <path
       d="m 1671.2754,4.8313022 c -2.2275,-0.03865 -4.59,0.4689063 -5.25,1.1289063 -0.923,0.92296 -1.1992,36.8144225 -1.1992,155.4648415 v 154.26563 l 2.1367,1.14453 c 1.1897,0.63671 6.5102,1.14258 12,1.14258 h 9.8633 v 77.16992 c 0,68.22532 0.1803,77.42569 1.5566,79.39062 1.5402,2.19901 1.8304,2.22266 27.3457,2.22266 23.7508,0 25.9189,-0.14495 27.4492,-1.83594 1.5217,-1.68138 1.6393,-7.92382 1.4043,-74.10156 l -0.2558,-72.26562 -4.3379,-2.32032 c -2.3863,-1.27629 -4.6363,-2.61872 -5,-2.98242 -0.3638,-0.36371 -0.8871,-69.3614 -1.1621,-153.32812 l -0.5,-152.66602 -21.25,-0.269532 -21.25,-0.269531 v -4.857422 c 0,-6.6484297 -1.3171,-7.5512159 -9.7676,-6.6914059 -3.7033,0.37679 -7.8574,0.8956738 -9.2324,1.1523438 -1.1134,0.2078273 -1.6768,0.2938312 -1.7324,0.2207031 v -0.00195 -0.00195 -0.00195 -0.00195 -0.00195 -0.00195 c 0.01,-0.084416 0.4298,-0.3054565 1.2383,-0.6875 1.6367,-0.7734 1.2635,-0.958125 -2.0508,-1.015625 z m -2.4492,5.9296878 h 10 10 v 152 c 0,147.53227 -0.056,152 -1.8614,152 -1.0233,0 -3.8358,0.17143 -6.25,0.38086 -2.4143,0.20939 -6.0761,0.18208 -8.1386,-0.0605 l -3.75,-0.4414 V 162.70044 132.84888 Z m 24,8 h 20.5 20.5 v 151.80859 c 0,119.91772 0.2626,152.14801 1.25,153.42579 0.6875,0.88967 3.1647,2.59901 5.5058,3.79687 l 4.2578,2.17773 -0.2578,72.14454 -0.2558,72.14648 -26.1367,0.26563 c -23.1805,0.23625 -26.2061,0.0873 -26.75,-1.33008 -1.085,-2.82743 -0.7069,-156.25966 0.3867,-156.93555 0.6594,-0.40753 1,-51.17662 1,-149.05859 z"
       id="path24"
       sodipodi:nodetypes="sssccscssssccssscccsssccccccsssscccsssccccccccsscccccsssc" />
    <path
       style="fill:#000000"
       d="m 812.47446,477.40809 c -1.52163,-1.68137 -1.63999,-7.92197 -1.40499,-74.07591 l 0.25662,-72.23986 5,-2.75132 5,-2.75132 0.5,-152.92277 0.5,-152.922761 h 17 17 l 0.23644,151.500001 c 0.17832,114.26198 0.5271,152.05304 1.41898,153.75 0.65039,1.2375 1.9514,2.25 2.89111,2.25 0.93972,0 2.26878,0.675 2.95347,1.5 0.68469,0.825 1.86479,1.5 2.62244,1.5 1.15755,0 1.37756,11.7068 1.37756,73.3 0,55.67778 -0.28849,73.58849 -1.2,74.5 -0.87094,0.87094 -8.23222,1.2 -26.84501,1.2 -23.61173,0 -25.77676,-0.14557 -27.30662,-1.83606 z m 53.52748,-4.66394 c 0.38989,-2.2 0.73482,-34.63274 0.76652,-72.07274 l 0.0576,-68.07275 -4.48836,-2.2416 c -8.24479,-4.11764 -7.51164,11.28732 -7.51164,-157.83542 V 21.244149 h -15.5 -15.5 V 173.05302 c 0,119.91772 -0.26259,152.14868 -1.25,153.42646 -0.6875,0.88967 -3.1625,2.59611 -5.5,3.79209 l -4.25,2.17451 v 70.81725 c 0,38.94948 0.27602,71.53654 0.61338,72.41569 0.54369,1.41682 3.52435,1.56814 26.23348,1.33178 l 25.62011,-0.26665 z"
       id="path302" />
    <path
       style="fill:#000000"
       d="m 744.48108,477.41541 c -1.50782,-1.66612 -1.65499,-8.24893 -1.65499,-74.02475 v -72.19601 l 2.25,-1.01819 c 3.44096,-1.55713 6.79206,-3.57438 8.08418,-4.86641 0.87312,-0.87304 1.29136,-39.37868 1.66582,-153.36581 l 0.5,-152.200091 h 17 17 l 0.5,152.666751 c 0.275,83.96672 0.79762,152.96434 1.16137,153.32805 0.36376,0.3637 2.61376,1.70551 5,2.9818 l 4.33863,2.32051 0.25964,72.85145 c 0.24092,67.6014 0.13707,72.94152 -1.44113,74.10144 -1.25628,0.92332 -8.40529,1.25 -27.35465,1.25 -23.58307,0 -25.78748,-0.14762 -27.30887,-1.82874 z m 54.10156,-72.81688 0.25654,-72.14562 -4.25654,-2.17792 c -2.3411,-1.19786 -4.81905,-2.90584 -5.50655,-3.79551 -0.98741,-1.27778 -1.25,-33.50874 -1.25,-153.42646 V 21.244149 h -15.5 -15.5 V 171.79381 c 0,168.43097 0.65854,154.48287 -7.48571,158.55031 l -4.51429,2.25454 v 70.74096 c 0,38.90752 0.27597,71.46013 0.61328,72.33912 0.5439,1.41741 3.56954,1.56804 26.75,1.33179 l 26.13672,-0.26638 z"
       id="path301" />
    <path
       style="fill:#000000"
       d="m 676.94638,477.88909 c -0.8272,-0.99672 -1.05792,-61.75509 -0.87245,-229.75 l 0.25216,-228.394941 22.25,-0.26913 22.25,-0.26913 0.006,149.769131 c 0.004,98.24704 0.35478,151.02636 1.02067,153.42378 0.80931,2.91372 1.9739,4.15683 5.74443,6.13174 l 4.7289,2.47711 v 73.15488 c 0,63.93854 -0.18898,73.27432 -1.5,74.10294 -0.84273,0.53263 -12.72952,0.95476 -27.12756,0.96337 -20.35622,0.0122 -25.85887,-0.26341 -26.75215,-1.33975 z m 53.27272,-2.22673 c 0.33385,-0.86998 0.60699,-33.31035 0.60699,-72.0897 v -70.50792 l -2.25,-1.87703 c -1.2375,-1.03236 -2.98575,-1.89199 -3.88499,-1.91029 -0.89924,-0.0183 -2.36029,-1.14022 -3.24677,-2.49316 -1.46156,-2.23063 -1.63539,-16.56032 -1.86501,-153.75 l -0.25323,-151.290111 -20.75,-0.27029 -20.75,-0.27029 V 248.55719 c 0,125.0445 0.3,227.65363 0.66667,228.02029 0.36666,0.36667 12.01852,0.66667 25.89301,0.66667 22.08063,0 25.30203,-0.19725 25.83333,-1.58179 z"
       id="path300" />
    <path
       style="fill:#000000"
       d="m 608.38279,477.02164 c -1.37385,-1.96144 -1.5567,-10.65658 -1.5567,-74.02475 v -71.80224 l 2.25,-0.97286 c 1.2375,-0.53508 2.925,-1.39147 3.75,-1.9031 0.825,-0.51163 2.25948,-1.16283 3.18773,-1.44711 0.92826,-0.28428 2.16325,-2.22925 2.74443,-4.32215 0.72049,-2.5946 1.05846,-51.45571 1.06226,-153.57441 l 0.006,-149.769131 22.25,0.26913 22.25,0.26913 0.25216,228.394941 c 0.18547,167.99491 -0.0453,228.75328 -0.87245,229.75 -0.89406,1.07728 -6.5203,1.35506 -27.44545,1.35506 -26.0656,0 -26.33595,-0.0215 -27.87756,-2.22251 z m 54.19546,-227.91967 c 0.2012,-181.638521 -8.9e-4,-227.714501 -1,-228.000011 -0.68869,-0.19679 -10.13966,-0.22688 -21.00216,-0.0668 l -19.75,0.29096 -0.0153,151.709041 c -0.009,89.53398 -0.38876,152.29924 -0.92652,153.14915 -0.88125,1.39278 -5.71739,4.32786 -9.30817,5.64918 -1.64425,0.60505 -1.75,4.94563 -1.75,71.82733 0,54.5661 0.28397,71.46734 1.21644,72.39981 0.90617,0.90617 7.72935,1.14849 26.75,0.95 l 25.53356,-0.26644 z"
       id="path299" />
    <path
       style="fill:#000000"
       d="m 541.47446,477.40809 c -1.52163,-1.68137 -1.63999,-7.92197 -1.40499,-74.07591 l 0.25662,-72.23986 5,-2.75132 5,-2.75132 0.5,-152.92277 0.5,-152.922761 h 17 17 l 0.5,152.200091 c 0.37446,113.98713 0.7927,152.49277 1.66582,153.36581 1.29834,1.29825 4.65377,3.31523 8.11558,4.87835 l 2.28141,1.03013 -0.28141,72.35972 c -0.23159,59.55147 -0.52433,72.65233 -1.65384,74.01281 -1.21134,1.45904 -4.39193,1.65309 -27.09502,1.65309 -23.68697,0 -25.85406,-0.1453 -27.38417,-1.83606 z m 53.31645,-2.0982 c 0.68545,-1.28078 1.03518,-25.71452 1.03518,-72.32274 v -70.38849 l -4.48836,-2.2416 c -8.24479,-4.11764 -7.51164,11.28732 -7.51164,-157.83542 V 21.244149 h -15.5 -15.5 V 173.05302 c 0,119.91772 -0.26259,152.14868 -1.25,153.42646 -0.6875,0.88967 -3.1625,2.59611 -5.5,3.79209 l -4.25,2.17451 v 70.81725 c 0,38.94948 0.27314,71.52905 0.60699,72.39903 0.53141,1.38484 3.76428,1.58179 25.96482,1.58179 24.04708,0 25.41133,-0.1 26.39301,-1.93426 z"
       id="path298" />
    <path
       d="M 481.19239,18.610362 V 168.5752 c 0,147.24236 -0.0344,149.98361 -1.93359,151 -1.06384,0.56935 -3.31384,1.03516 -5,1.03516 h -3.06641 v 75.41797 c 0,41.48002 0.27597,76.13859 0.61328,77.01758 0.5439,1.41741 3.56954,1.56633 26.75,1.33008 l 26.13672,-0.26563 0.25586,-72.14648 0.25781,-72.14454 -4.25781,-2.17773 c -2.3411,-1.19786 -4.81836,-2.9072 -5.50586,-3.79687 -0.98741,-1.27778 -1.25,-33.50807 -1.25,-153.42579 V 18.610362 h -16.5 z"
       id="path7"
       style="fill:#ffffff" />
    <path
       d="m 459.82617,16.244141 v 151.939449 91.6836 60.25586 l 3.75,0.4414 c 2.0625,0.24263 5.72637,0.26994 8.14063,0.0605 2.41352,-0.20936 5.22402,-0.38075 6.24804,-0.38086 0,0 1.68305,-3.37669 1.84571,-101.19922 0.007,-4.34751 0.0128,-8.88077 0.0137,-13.60937 0.002,-11.25813 0.002,-23.61988 0.002,-37.19141 V 16.244141 h -10 z"
       id="path6"
       sodipodi:nodetypes="cccccscccsccc" />
    <path
       d="m 462.27539,10.314453 c -2.2275,-0.03865 -4.59,0.468906 -5.25,1.128906 -0.92296,0.92296 -1.19922,36.814423 -1.19922,155.464841 0,151.49364 0.0341,154.28419 1.9336,155.30078 1.06384,0.56935 3.25759,1.03516 4.875,1.03516 1.61741,0 4.34765,0.28125 6.0664,0.625 l 3.125,0.625 v 75.15234 c 0,66.40041 0.18123,75.41133 1.55664,77.375 1.54023,2.19901 1.83042,2.22266 27.34571,2.22266 23.75076,0 25.91889,-0.14495 27.44921,-1.83594 1.52164,-1.68138 1.6393,-7.92382 1.4043,-74.10156 l -0.25586,-72.26562 -4.33789,-2.32032 c -2.38624,-1.27629 -4.63624,-2.61872 -5,-2.98242 -0.36375,-0.36371 -0.88711,-69.3614 -1.16211,-153.32812 l -0.5,-152.666019 -17.25,-0.273438 -17.25,-0.273437 V 15.84375 c 0,-5.00545 -1.85734,-5.9923401 -9.76758,-5.1875 -3.70326,0.37679 -7.85742,0.895674 -9.23242,1.152344 -1.11337,0.207827 -1.67678,0.293831 -1.73242,0.220703 l -0.002,-0.002 -0.002,-0.002 v -0.002 -0.002 l -0.002,-0.002 v -0.002 c 0.006,-0.08441 0.4298,-0.305456 1.23828,-0.6875 1.63668,-0.7734 1.26349,-0.958125 -2.05078,-1.015625 z m -2.44922,5.929688 h 10 10 V 168.24414 c 0,13.57153 5e-5,25.93328 -0.002,37.19141 -9e-4,4.7286 -0.007,9.26186 -0.0137,13.60937 -0.16266,97.82253 -1.84571,101.19922 -1.84571,101.19922 -1.02402,1.1e-4 -3.83452,0.1715 -6.24804,0.38086 -2.41426,0.20939 -6.07813,0.18208 -8.14063,-0.0605 l -3.75,-0.4414 v -60.25586 -91.6836 z m 24,5 h 16.5 16.5 V 173.05273 c 0,119.91772 0.26259,152.14801 1.25,153.42579 0.6875,0.88967 3.16476,2.59901 5.50586,3.79687 l 4.25781,2.17773 -0.25781,72.14454 -0.25586,72.14648 -26.13672,0.26563 c -23.18046,0.23625 -26.2061,0.0873 -26.75,-1.33008 -0.33731,-0.87899 -0.61328,-35.53756 -0.61328,-77.01758 v -75.41797 h 3.06641 c 1.68616,0 3.93616,-0.46581 5,-1.03516 1.89916,-1.01639 1.93359,-3.75764 1.93359,-151 z"
       id="path5"
       sodipodi:nodetypes="cssssscsssscccsscccssscccccccscccccssccsccccccccsscccccsscsssc" />
  </g>
</svg>
